<?xml version="1.0" encoding="UTF-8" standalone="no"?>
<svg
   width="1979"
   height="769"
   viewBox="0 0 1979 769"
   fill="none"
   version="1.1"
   id="svg14"
   sodipodi:docname="Logo Talar del Lago 1.svg"
   inkscape:export-filename="Logo Talar del Lago 1.png"
   inkscape:export-xdpi="96"
   inkscape:export-ydpi="96"
   xmlns:inkscape="http://www.inkscape.org/namespaces/inkscape"
   xmlns:sodipodi="http://sodipodi.sourceforge.net/DTD/sodipodi-0.dtd"
   xmlns="http://www.w3.org/2000/svg"
   xmlns:svg="http://www.w3.org/2000/svg">
  <sodipodi:namedview
     id="namedview14"
     pagecolor="#ffffff"
     bordercolor="#000000"
     borderopacity="0.25"
     inkscape:showpageshadow="2"
     inkscape:pageopacity="0.0"
     inkscape:pagecheckerboard="0"
     inkscape:deskcolor="#d1d1d1"
     inkscape:export-bgcolor="#ffffffff" />
  <g
     clip-path="url(#clip0_1733_6)"
     id="g14">
    <path
       d="m 1009.88,3.70631 c -1.62,10.65479 -1.62,10.65479 -3.7,14.82409 1.4,-0.0215 2.81,-0.043 4.26,-0.0651 1.84,-0.0168 3.68,-0.0335 5.58,-0.0507 1.83,-0.0215 3.66,-0.043 5.54,-0.0652 5,0.181 5,0.181 10.56,2.034 4.35,6.5194 4.78,9.0015 3.71,16.6771 -6.45,8.8841 -15.48,12.8897 -25.16,17.7339 -4.97,2.4911 -4.97,2.4911 -8.2,8.2083 15.26,-3.0193 29.97,-6.5503 44.77,-11.3642 11.48,-3.5055 22.06,-5.4088 33.64,-1.2594 5.76,3.8876 7.09,5.935 8.68,12.6236 0.05,3.088 0.05,6.1771 0,9.2651 -17.3,9.6995 -34.67,15.2786 -53.73,20.3831 1.87,-0.4228 3.75,-0.8456 5.68,-1.2812 2.51,-0.5391 5.01,-1.0771 7.52,-1.6141 1.85,-0.421 1.85,-0.421 3.73,-0.8505 7.89,-1.6615 14.19,-2.1259 21.98,0.0398 7.41,7.412 7.41,7.412 7.41,14.8241 26.25,-4.0137 52.37,-8.4019 78.42,-13.595 44.15,-8.7468 44.15,-8.7468 62.41,-1.2291 6.85,5.2138 8.96,7.8402 10.77,16.3301 0.11,1.949 0.23,3.898 0.35,5.906 -15.2,7.737 -30.94,10.987 -47.49,14.477 -2.95,0.637 -5.91,1.277 -8.86,1.919 -6.04,1.312 -12.08,2.616 -18.13,3.915 -12.3,2.651 -24.59,5.396 -36.87,8.166 -3.55,0.799 -7.1,1.591 -10.65,2.382 -2.18,0.492 -4.37,0.983 -6.62,1.489 -1.88,0.42 -3.75,0.84 -5.68,1.273 -9.03,2.192 -17.97,4.668 -26.91,7.145 1.32,-0.215 2.64,-0.431 4,-0.653 157.17,-25.6 157.17,-25.6 196.7,-26.1 1.36,-0.019 2.73,-0.038 4.13,-0.058 7.91,0.14 13.16,1.469 19.38,6.428 2.66,7.999 1.96,15.732 1.85,24.089 -17.21,5.188 -34.33,9.366 -52,12.74 -4.91,0.955 -9.83,1.918 -14.74,2.881 -1.86,0.361 -1.86,0.361 -3.75,0.731 -10.33,2.018 -20.62,4.176 -30.91,6.354 -20.08,4.248 -40.17,8.076 -60.4,11.49 -25.06,4.241 -49.83,9.33 -74.57,15.141 -2.26,0.523 -2.26,0.523 -4.57,1.056 -15.44,3.591 -30.19,7.257 -44.42,14.463 0.61,1.834 1.22,3.669 1.85,5.559 14.9,5.944 28.22,1.97 43.17,-1.716 7.39,-1.822 14.82,-3.524 22.24,-5.248 1.5,-0.353 3.01,-0.706 4.56,-1.069 14.83,-3.466 29.73,-6.471 44.69,-9.339 2.26,-0.441 4.52,-0.882 6.85,-1.336 41.5,-7.934 41.5,-7.934 62.17,-7.698 1.99,-0.021 1.99,-0.021 4.01,-0.043 6.88,0.026 12.23,0.254 18,4.213 4.71,6.36 4,12.716 3.7,20.383 -9.77,4.591 -18.93,7.137 -29.53,9.033 -1.62,0.305 -3.24,0.609 -4.92,0.923 -10.93,2.002 -21.9,3.697 -32.91,5.288 -2.69,0.395 -5.38,0.791 -8.08,1.188 -5.32,0.781 -10.64,1.519 -15.97,2.234 -2.48,0.359 -4.96,0.719 -7.44,1.08 -2.2,0.302 -4.4,0.604 -6.66,0.916 -8.3,2.306 -11.52,6.838 -16.44,13.618 -5.12,5.854 -10.14,8.473 -17.02,12.045 11.56,0.196 22.6,-0.385 34.05,-1.969 1.69,-0.23 3.38,-0.46 5.12,-0.698 20.1,-2.912 39.97,-7.06 59.85,-11.206 25.32,-5.264 50.09,-9.082 76,-9.152 3.96,-0.022 7.92,-0.114 11.89,-0.206 2.55,-0.018 5.1,-0.031 7.66,-0.04 2.27,-0.025 4.54,-0.05 6.88,-0.076 7.76,1.417 10.49,4.297 15.35,10.376 1.13,5.687 0.43,10.927 0,16.677 -13.67,5.139 -26.89,7.339 -41.35,9.149 -4.78,0.631 -9.57,1.264 -14.35,1.897 -2.46,0.32 -4.92,0.641 -7.38,0.961 -46.86,1.776 -46.86,1.776 -88.87,15.788 13.56,0.343 26.52,-1.038 39.96,-2.779 46.04,-5.615 46.04,-5.615 65.66,0.926 0,7.95 0,15.899 0,24.089 -15.81,4.828 -31.48,7.362 -47.82,9.406 -7.64,0.961 -15.27,1.981 -22.9,2.994 -2.32,0.306 -2.32,0.306 -4.68,0.618 -74.56,9.872 -146.67,26.681 -219.224,46.279 13.946,0.424 26.882,-0.667 40.574,-3.243 3.8,-0.676 7.59,-1.351 11.38,-2.027 5.87,-1.068 11.74,-2.142 17.61,-3.221 54.63,-9.976 54.63,-9.976 67.02,-3.851 4.73,3.427 7.55,6.32 8.57,12.226 0.03,1.261 0.05,2.522 0.07,3.822 0.06,1.261 0.11,2.522 0.16,3.822 -1.2,5.066 -3.99,6.444 -8.26,9.149 2.25,0.246 4.5,0.492 6.82,0.745 2.94,0.331 5.88,0.661 8.81,0.992 2.23,0.242 2.23,0.242 4.51,0.489 11.15,1.27 11.15,1.27 13.21,3.333 0,4.28 0,8.561 0,12.971 -9.17,4.892 -18.34,9.784 -27.79,14.824 0.34,3.249 0.68,6.497 1.04,9.844 0.67,6.375 1,9.963 -1.04,16.098 -4.23,1.915 -8.22,3.365 -12.63,4.749 -1.39,0.461 -2.78,0.923 -4.21,1.398 -9.55,3.068 -19.17,5.684 -28.9,8.108 -6.05,1.511 -12.09,3.07 -18.13,4.626 -3.04,0.769 -6.1,1.51 -9.16,2.224 -16.9,3.107 -16.9,3.107 -30.09,12.661 -1.379,4.256 -1.932,8.142 -2.504,12.56 -4.054,5.674 -4.054,5.674 -7.412,9.265 4.891,3.669 9.786,7.338 14.826,11.118 -1.39,16.379 -1.39,16.379 -7.414,24.089 -4.379,2.223 -8.554,4.098 -13.087,5.906 -9.324,4.073 -9.324,4.073 -15.382,12.016 -0.858,4.638 -1.312,8.87 -1.179,13.579 4.555,0.05 9.11,0.087 13.665,0.116 1.295,0.015 2.59,0.031 3.924,0.047 7.191,0.177 7.191,0.177 13.913,-2.016 4.32,-0.074 8.65,-0.08 12.97,0 6.42,10.169 6.03,17.978 5.56,29.648 6.72,1.223 13.45,2.446 20.38,3.706 -2.19,8.774 -5.75,11.851 -12.97,16.677 -5.32,2.91 -10.78,5.418 -16.33,7.876 -9.14,3.5 -9.14,3.5 -17.023,8.801 2.819,0.026 2.819,0.026 5.695,0.053 6.968,0.074 13.948,0.196 20.918,0.332 3.02,0.052 6.03,0.092 9.05,0.118 4.34,0.039 8.68,0.126 13.01,0.221 2.03,0.004 2.03,0.004 4.09,0.007 6.03,0.175 9.36,0.277 13.8,4.552 4.21,8.387 4.18,15.325 3.93,24.525 -0.2,5.277 -0.2,5.277 0.48,9.989 0.31,5.163 0.2,7.569 -2.41,12.088 -13.31,8.468 -28.24,15.064 -44.19,15.047 -2.71,0.004 -2.71,0.004 -5.46,0.007 -2.95,-0.01 -2.95,-0.01 -5.96,-0.02 -2.08,10e-4 -4.16,10e-4 -6.304,10e-4 -6.878,-10e-4 -13.756,-0.016 -20.634,-0.03 -4.767,-0.004 -9.534,-0.006 -14.301,-0.008 -11.268,-0.006 -22.535,-0.021 -33.803,-0.04 -12.83,-0.02 -25.659,-0.031 -38.489,-0.04 -26.388,-0.019 -52.775,-0.052 -79.163,-0.093 3.196,-9.164 8.049,-13.414 15.75,-18.993 1.102,-0.827 2.203,-1.653 3.337,-2.505 7.935,-5.911 7.935,-5.911 12.414,-8.15 1.437,-4.561 2.488,-9.161 3.568,-13.818 2.652,-6.277 5.52,-8.467 11.256,-12.124 4.819,-1.81 9.43,-3.36 14.361,-4.749 2.635,-0.78 5.269,-1.562 7.904,-2.345 1.265,-0.369 2.529,-0.738 3.832,-1.118 6.805,-2.019 13.508,-4.332 20.228,-6.613 -0.612,-1.834 -1.223,-3.669 -1.853,-5.559 -3.211,-1.261 -3.211,-1.261 -6.486,-2.547 -6.485,-3.012 -6.485,-3.012 -8.57,-7.644 0.232,-4.633 0.232,-4.633 2.403,-7.564 4.383,-3.399 7.892,-3.954 13.348,-4.828 2.601,-0.441 2.601,-0.441 5.255,-0.89 4.872,-0.581 9.532,-0.732 14.433,-0.616 -0.612,-4.892 -1.223,-9.784 -1.853,-14.824 -1.407,-0.47 -2.814,-0.941 -4.264,-1.426 -2.762,-0.956 -2.762,-0.956 -5.58,-1.932 -1.828,-0.624 -3.655,-1.247 -5.538,-1.89 -4.763,-2.061 -7.265,-3.798 -10.56,-7.723 2.527,-8.272 5.742,-11.963 12.971,-16.677 3.884,-1.385 7.743,-2.628 11.726,-3.699 3.649,-1.71 3.649,-1.71 4.458,-6.674 0.163,-1.469 0.325,-2.938 0.493,-4.451 -1.498,-0.16 -2.996,-0.32 -4.539,-0.485 -16.147,-2.123 -16.147,-2.123 -23.256,-7.159 -3.778,-5.43 -6.437,-10.846 -9.186,-16.836 -2.72,-4.667 -6.532,-6.353 -11.197,-8.874 -2.942,-6.337 -1.877,-13.515 -1.853,-20.383 -2.054,0.086 -4.109,0.172 -6.225,0.26 -2.712,0.07 -5.424,0.137 -8.136,0.203 -1.352,0.062 -2.704,0.124 -4.097,0.188 -6.29,0.114 -10.389,-0.136 -15.736,-3.576 -3.681,-5.763 -4.2,-10.705 -4.719,-17.459 -2.145,0.086 -4.29,0.172 -6.5,0.261 -2.852,0.07 -5.704,0.137 -8.556,0.203 -1.409,0.062 -2.818,0.124 -4.27,0.188 -9.91,0.171 -15.439,-1.457 -23.293,-8.064 -2.978,-5.956 -1.96,-11.926 -1.853,-18.53 1.196,-0.429 2.392,-0.859 3.625,-1.302 5.433,-1.955 10.864,-3.916 16.295,-5.878 2.823,-1.014 2.823,-1.014 5.703,-2.049 1.816,-0.656 3.631,-1.313 5.502,-1.99 1.669,-0.602 3.338,-1.203 5.057,-1.823 4.15,-1.613 8.056,-3.421 11.996,-5.488 -17.135,2.883 -33.522,7.129 -50.147,12.161 -26.696,8.006 -62.052,18.208 -88.69,4.538 -3.381,-2.219 -6.537,-4.568 -9.403,-7.434 0.612,-10.398 3.165,-16.021 9.265,-24.089 -3.057,-2.446 -6.115,-4.892 -9.265,-7.412 0,-5.756 0.535,-9.712 4.56,-14.006 19.254,-15.129 43.737,-21.527 66.665,-28.961 4.546,-1.481 9.092,-2.966 13.635,-4.457 2.805,-0.92 5.611,-1.834 8.42,-2.741 6.215,-2.032 12.169,-4.105 17.9,-7.278 -12.862,-0.675 -23.86,1.767 -36.249,5.095 -3.188,0.838 -3.188,0.838 -6.44,1.693 -19.824,5.326 -39.401,11.419 -58.994,17.532 -88.904,27.733 -88.904,27.733 -116.971,22.005 -0.251,-4.128 -0.43,-8.26 -0.579,-12.392 -0.107,-2.3 -0.215,-4.601 -0.325,-6.971 0.904,-6.579 0.904,-6.579 4.618,-11.668 6.683,-5.027 12.982,-7.719 20.839,-10.43 1.495,-0.536 2.99,-1.071 4.53,-1.623 18.903,-6.59 38.263,-11.73 57.6,-16.87 4.139,-1.069 4.139,-1.069 7.82,-3.049 -1.055,-0.027 -2.109,-0.054 -3.196,-0.081 -4.842,-0.14 -9.682,-0.318 -14.523,-0.498 -2.488,-0.062 -2.488,-0.062 -5.027,-0.126 -10.376,-0.418 -18.144,-1.65 -27.285,-6.707 -4.596,-6.894 -4.564,-10.373 -3.706,-18.53 5.771,-7.619 13.428,-10.347 22.128,-13.535 1.465,-0.553 2.931,-1.105 4.441,-1.674 17.523,-6.535 35.242,-12.5 52.994,-18.377 2.699,-0.896 2.699,-0.896 5.452,-1.81 48.97,-16.236 98.339,-31.021 147.927,-45.246 1.25,-0.359 2.5,-0.717 3.787,-1.087 12.499,-3.588 24.999,-7.17 37.509,-10.715 5.756,-1.633 11.508,-3.277 17.262,-4.918 3.164,-0.891 3.164,-0.891 6.393,-1.799 1.934,-0.553 3.868,-1.107 5.861,-1.677 1.69,-0.479 3.379,-0.958 5.12,-1.451 4.707,-1.424 4.707,-1.424 9.842,-5.185 -19.674,2.231 -38.246,7.283 -57.252,12.641 -9.075,2.554 -18.165,5.05 -27.255,7.546 -1.813,0.499 -3.627,0.997 -5.495,1.51 -43.152,11.814 -86.668,21.448 -130.595,29.897 -6.233,1.2 -12.458,2.43 -18.673,3.721 -1.243,0.256 -2.485,0.512 -3.766,0.776 -3.399,0.703 -6.797,1.416 -10.194,2.129 -14.461,2.514 -28.601,3.412 -41.397,-4.483 -4.264,-5.09 -5.418,-8.402 -6.485,-14.94 0.926,-5.443 0.926,-5.443 4.864,-9.728 5.666,-3.326 9.947,-4.376 16.445,-4.98 -0.279,-1.3 -0.559,-2.599 -0.847,-3.938 -0.76,-6.148 -0.805,-10.446 0.847,-16.445 13.279,-12.734 35.431,-22.236 53.737,-22.236 0,-7.95 0,-15.899 0,-24.09 4.244,-1.358 8.491,-2.708 12.739,-4.053 1.338,-0.428 2.675,-0.855 4.053,-1.295 6.878,-2.167 13.728,-4.182 20.753,-5.813 19.198,-4.562 35.561,-11.931 52.825,-21.517 8.752,-4.84 16.909,-8.737 26.492,-11.671 6.757,-2.099 6.757,-2.099 11.24,-7.166 1.245,-3.959 1.245,-3.959 1.608,-9.634 -1.15,0.075 -2.3,0.151 -3.484,0.229 -5.207,0.33 -10.416,0.63 -15.625,0.929 -1.81,0.12 -3.619,0.239 -5.483,0.362 -1.738,0.096 -3.476,0.191 -5.266,0.29 -2.402,0.145 -2.402,0.145 -4.852,0.294 -4.203,-0.251 -4.203,-0.251 -9.762,-3.957 2.416,-9.4436 5.826,-13.8592 12.971,-20.3832 0.922,-1.0629 1.844,-2.1259 2.794,-3.2211 12.131,-13.5726 27.741,-21.537 43.531,-30.1331 1.664,-0.9095 3.328,-1.819 5.042,-2.756 99.265,-53.8898 99.265,-53.8898 141.341,-39.86329 z M 1054.36,153.8 c 7.41,1.853 7.41,1.853 7.41,1.853 z"
       fill="#045721"
       id="path1" />
    <path
       d="m 220.507,289.07 c 7.432,3.497 11.45,6.867 14.592,14.36 3.946,12.783 3.122,22.691 -2.62,34.563 -3.969,7.056 -8.439,13.77 -12.884,20.53 -15.515,23.766 -15.515,23.766 -21.324,50.992 10.553,-0.968 18.397,-5.135 27.585,-10.025 1.587,-0.826 3.174,-1.652 4.809,-2.503 5.076,-2.642 10.141,-5.304 15.204,-7.971 82.176,-43.253 82.176,-43.253 111.759,-42.503 5.907,2.085 5.907,2.085 9.265,5.559 0.977,4.314 0.977,4.314 0,9.265 -4.071,3.341 -7.784,5.916 -12.276,8.57 -8.631,5.228 -16.613,10.782 -24.419,17.204 -14.233,11.643 -28.766,19.828 -45.416,27.5 -2.646,1.25 -5.292,2.502 -7.936,3.757 -21.459,10.137 -43.072,19.968 -64.742,29.646 -7.104,3.178 -14.185,6.404 -21.245,9.68 -1.321,0.612 -2.642,1.224 -4.003,1.855 -4.063,1.901 -8.106,3.838 -12.146,5.788 -1.242,0.58 -2.483,1.159 -3.762,1.756 -12.716,6.239 -17.473,14.509 -23.121,27.111 -0.551,1.219 -1.103,2.438 -1.671,3.693 -1.827,4.043 -3.635,8.094 -5.444,12.144 -2.656,5.895 -5.32,11.785 -7.984,17.676 -0.693,1.537 -1.386,3.073 -2.1,4.656 -5.034,11.139 -10.163,22.231 -15.344,33.302 C 90.0732,619.55 65.983,673.239 46.8072,729.592 42.2388,743.006 37.5906,756.179 31.5009,769 c -5.3792,0.64 -9.4973,0.961 -14.2666,-1.868 -5.011,-4.052 -7.76345,-6.78 -9.82232,-12.956 -1.61743,-18.74 0.38376,-36.393 4.16922,-54.78 0.5684,-2.808 0.5684,-2.808 1.1482,-5.673 2.1473,-9.781 4.509,-18.44 9.2706,-27.223 6.2162,-26.477 4.6314,-16.18 6,-24.5 5.2198,-28.192 20.2789,-54.307 32.4332,-80.044 9.5204,-20.198 17.7895,-40.439 24.8046,-61.643 -13.8154,0.546 -13.8154,0.546 -25.5149,6.797 -2.3297,3.823 -4.2094,7.625 -5.986,11.733 -5.9698,12.01 -5.9698,12.01 -11.9287,15.982 -6.4877,0.95 -8.6468,-1.235 -14.0133,-4.864 -2.7962,-2.368 -5.5376,-4.802 -8.2226,-7.296 C 13.3276,516.995 7.17547,512.141 0,507.725 4.99858,491.82 20.0351,483.423 33.9045,475.709 c 4.4135,-2.266 8.8618,-4.429 13.3469,-6.55 2.4597,-1.182 2.4597,-1.182 4.9691,-2.388 15.3309,-7.163 31.1628,-12.709 47.3527,-17.61 10.6748,-3.495 17.1948,-6.239 22.3948,-16.419 0.72,-1.55 1.44,-3.1 2.183,-4.697 1.604,-3.061 3.209,-6.121 4.823,-9.177 2.466,-4.7 4.87,-9.432 7.276,-14.163 3.268,-6.419 6.564,-12.824 9.862,-19.228 0.984,-1.912 0.984,-1.912 1.989,-3.863 49.422,-95.828 49.422,-95.828 72.406,-92.544 z"
       fill="#085a24"
       id="path2" />
    <path
       d="m 520.112,291.039 c 1.383,0.174 2.767,0.349 4.191,0.528 4.521,1.438 6.426,3.073 9.36,6.768 3.07,9.213 2.732,16.102 -0.58,25.247 -4.491,8.229 -10.671,15.03 -16.799,22.055 -11.888,13.75 -22.178,28.661 -32.652,43.496 -1.809,2.546 -3.619,5.091 -5.429,7.636 -4.593,6.47 -9.16,12.958 -13.715,19.455 -2.185,3.115 -4.372,6.229 -6.561,9.341 -17.287,24.586 -34.161,49.373 -50.268,74.748 -1.045,1.64 -2.09,3.28 -3.166,4.97 -12.38,19.488 -24.198,38.906 -33.894,59.886 13.768,-4.9 25.534,-11.391 37.755,-19.341 38.015,-24.054 38.015,-24.055 56.748,-21.425 5.409,2.587 8.75,5.044 12.971,9.265 -0.516,7.374 -2.559,10.847 -7.984,15.714 -1.232,1.124 -2.463,2.248 -3.732,3.406 -1.94,1.714 -1.94,1.714 -3.919,3.463 -1.929,1.747 -1.929,1.747 -3.898,3.529 -2.382,2.156 -4.772,4.304 -7.173,6.44 -2.277,2.054 -4.479,4.192 -6.648,6.361 -3.294,-0.565 -3.294,-0.565 -7.296,-1.621 -8.398,-1.099 -12.307,0.87 -19.11,5.79 -3.598,2.876 -7.148,5.814 -10.654,8.802 -1.83,1.545 -3.66,3.091 -5.545,4.683 -2.928,2.482 -5.851,4.97 -8.763,7.472 -8.642,7.389 -17.552,14.395 -26.574,21.315 -1.346,1.038 -2.693,2.077 -4.08,3.146 -1.274,0.971 -2.548,1.942 -3.86,2.941 -1.128,0.861 -2.256,1.721 -3.417,2.607 -8.958,6.171 -16.678,7.814 -27.44,6.014 -9.181,-5.826 -14.395,-13.253 -20.383,-22.236 -0.807,0.872 -1.615,1.744 -2.447,2.642 -10.317,10.787 -19.233,16.946 -34.613,17.741 -11.083,-1.847 -20.189,-6.004 -30.184,-11.074 -6.007,-2.268 -9.764,-2.79 -16.141,-1.897 -5.659,3.44 -5.659,3.439 -11.118,8.223 -2.107,1.707 -4.221,3.405 -6.341,5.096 -1.628,1.3 -1.628,1.3 -3.289,2.627 -16.985,13.139 -36.457,27.365 -58.931,24.821 -6.661,-2.691 -12.173,-5.43 -16.677,-11.119 -4.188,-12.563 -3.26,-24.509 2.317,-36.481 13.477,-24.424 32.069,-45.534 51.42,-65.434 1.127,-1.175 2.254,-2.349 3.415,-3.56 21.9,-22.786 42.693,-42.592 75.967,-44.807 7.659,0.36 11.487,3.839 16.511,9.222 5.171,8.791 4.337,18.135 4.169,28.027 1.032,0.382 2.064,0.764 3.127,1.158 6.2,3.687 9.58,7.654 13.55,13.666 0.61,10.771 -4.272,17.408 -10.423,25.732 -2.513,3.862 -3.589,6.829 -4.401,11.328 19.007,-5.218 35.957,-17.944 46.209,-34.744 1.813,-3.23 3.625,-6.461 5.412,-9.707 4.218,-7.43 8.869,-14.594 13.466,-21.794 1.093,-1.719 2.187,-3.437 3.313,-5.208 14.096,-22.049 28.701,-43.76 43.266,-65.499 6.287,-9.392 12.536,-18.808 18.768,-28.237 4.605,-6.967 9.218,-13.928 13.831,-20.889 2.231,-3.37 4.458,-6.742 6.681,-10.118 30.841,-46.816 30.841,-46.816 46.74,-62.608 6.035,-6.082 9.502,-13.281 13.32,-20.845 5.577,-10.42 13.027,-18.626 25.598,-16.717 z M 201.375,585.371 c -1.683,2.511 -3.327,5.048 -4.958,7.593 1.904,2.245 1.904,2.245 5.834,2.657 8.051,-1.225 11.953,-6.18 17.56,-11.806 2.297,-2.222 4.599,-4.44 6.906,-6.652 1.137,-1.096 2.275,-2.192 3.447,-3.322 8.659,-8.136 18.108,-15.374 27.424,-22.736 2.526,-2.031 4.971,-4.162 7.39,-6.319 0,-1.223 0,-2.446 0,-3.706 -25.692,-12.846 -51.355,26.696 -63.603,44.291 z"
       fill="#095b25"
       id="path3" />
    <path
       d="m 589.252,465.106 c 4.505,3.466 6.747,6.081 9.265,11.118 0.508,4.623 0.826,9.245 1.151,13.883 0.731,4.838 1.787,7.945 4.408,12.059 3.671,2.524 7.377,4.996 11.118,7.412 4.642,6.963 4.396,10.263 3.706,18.531 -2.432,6.536 -2.432,6.536 -5.559,12.855 -1.031,2.119 -2.063,4.237 -3.127,6.42 -0.802,1.589 -1.605,3.177 -2.432,4.814 15.419,-4.916 28.707,-11.761 42.504,-20.152 40.351,-24.321 40.351,-24.321 48.293,-24.321 0.497,-1.07 0.994,-2.14 1.506,-3.242 2.359,-4.47 4.248,-7.918 7.759,-11.582 8.057,-1.417 15.964,-0.661 24.089,0 1.596,0.053 3.191,0.105 4.835,0.16 5.398,0.837 7.722,1.724 11.842,5.399 3.543,6.283 6.073,12.949 8.396,19.764 3.087,8.999 6.029,15.019 13.84,21.003 8.924,2.277 16.643,0.943 24.784,-3.127 4.995,-4.103 4.995,-4.103 8.57,-9.265 3.706,-4.285 3.706,-4.285 9.728,-5.791 1.682,-0.115 3.363,-0.229 5.096,-0.347 5.823,6.949 8.618,11.824 10.539,20.73 -1.768,9.802 -6.427,12.618 -14.288,18.32 -22.751,14.72 -45.102,21.744 -72.224,16.54 -12.178,-3.414 -17.241,-12.875 -23.56,-23.235 -2.382,-4.56 -2.382,-4.56 -2.382,-8.266 -16.818,4.841 -32.002,11.959 -47.475,19.959 -8.511,4.395 -17.054,8.726 -25.602,13.047 -1.689,0.868 -3.377,1.735 -5.117,2.628 -19.068,9.642 -35.385,15.179 -57.075,12.544 -6.406,-2.119 -12.505,-4.65 -18.718,-7.275 -8.218,-3.045 -11.822,-2.928 -20.194,-0.137 -7.854,4.972 -14.626,11.181 -21.614,17.278 -16.246,13.843 -29.341,21.172 -51.073,20.39 -8.555,-1.012 -14.783,-3.505 -21.585,-8.946 -3.848,-5.132 -4.808,-10.911 -4.676,-17.228 3.32,-18.356 17.133,-34.48 28.534,-48.554 0.777,-0.969 1.555,-1.937 2.356,-2.935 69.446,-85.874 69.446,-85.874 114.382,-80.451 z m -58.715,71.24 c -5.919,7.006 -11.652,14.151 -17.257,21.411 1.834,1.834 3.669,3.669 5.559,5.559 6.388,-2.78 10.791,-6.493 15.866,-11.234 15.66,-14.35 32.378,-27.427 48.988,-40.651 -1.459,-3.987 -1.459,-3.987 -5.095,-4.864 -21.99,-3.665 -34.996,14.589 -48.061,29.779 z"
       fill="#095b26"
       id="path4" />
    <path
       d="m 1652.29,516.064 c 1.42,0.917 2.83,1.834 4.29,2.779 0.61,-1.223 1.22,-2.446 1.85,-3.706 5.5,0 11.01,0 16.68,0 0.14,11.34 0.24,22.68 0.3,34.02 0.03,3.854 0.07,7.707 0.12,11.56 0.07,5.557 0.1,11.113 0.12,16.67 0.03,1.707 0.06,3.414 0.09,5.172 0,13.431 -1.65,24.186 -11.29,34.262 -12.87,8.418 -26.23,8.981 -41.23,7.644 -5.77,-1.408 -11.2,-3.238 -16.67,-5.559 0,-4.892 0,-9.784 0,-14.824 2.29,0.611 4.58,1.223 6.95,1.853 10.42,2.279 21.39,3.659 31.96,1.853 5.78,-4.461 8.3,-8.168 9.73,-15.287 0.46,-2.293 0.92,-4.587 1.39,-6.949 -1.34,0.917 -2.68,1.834 -4.06,2.779 -9.62,4.803 -20.72,3.962 -31.15,2.78 -9.21,-4.203 -13.53,-9.828 -18.53,-18.53 -4.47,-13.423 -3.87,-29.149 2.2,-41.925 10.33,-17.813 28.44,-22.244 47.25,-14.592 z m -29.07,17.603 c -4.85,9.633 -4.74,19.087 -3.7,29.649 2.86,6.88 6.38,11.249 12.97,14.824 7.1,1.057 10.12,0.637 16.21,-3.243 6.79,-6.783 8.42,-12 8.46,-21.541 -0.18,-8.51 -1.02,-14.476 -6.14,-21.542 -10.62,-8.171 -17.72,-6.25 -27.8,1.853 z"
       fill="#393737"
       id="path5" />
    <path
       d="m 1935.49,464 c 2.2,0.005 4.4,0.01 6.66,0.014 2.2,-0.004 4.4,-0.009 6.66,-0.014 5.39,0.246 5.39,0.246 7.24,2.099 0.19,4.839 0.25,9.629 0.24,14.47 0,1.515 0.01,3.03 0.01,4.592 0.01,5.034 0,10.069 0,15.103 0,3.483 0,6.965 0,10.448 0,7.309 0,14.618 -0.01,21.927 -0.01,9.391 0,18.782 0.01,28.173 0,7.195 0,14.389 0,21.584 0,3.463 0,6.927 0,10.391 0.01,4.832 0,9.664 -0.01,14.496 0,1.446 0.01,2.892 0.01,4.381 -0.04,9.876 -0.04,9.876 -2.1,11.941 -4.02,0.183 -8.03,0.24 -12.05,0.232 -2.2,0.005 -4.39,0.009 -6.66,0.014 -5.38,-0.246 -5.38,-0.246 -7.24,-2.099 -0.18,-4.839 -0.25,-9.629 -0.24,-14.469 0,-1.516 0,-3.031 -0.01,-4.593 0,-5.034 0,-10.068 0.01,-15.103 0,-3.482 -0.01,-6.965 -0.01,-10.448 0,-7.309 0,-14.618 0.01,-21.927 0.01,-9.391 0.01,-18.782 0,-28.173 -0.01,-7.194 -0.01,-14.389 0,-21.583 0,-3.464 0,-6.928 -0.01,-10.391 0,-4.832 0,-9.664 0.01,-14.496 0,-1.446 0,-2.892 -0.01,-4.382 0.05,-11.847 0.05,-11.847 7.49,-12.187 z"
       fill="#151313"
       id="path6" />
    <path
       d="m 1202.59,479.93 c 5.51,0 11.01,0 16.68,0 1.85,1.853 1.85,1.853 2.08,6.226 -0.01,1.938 -0.01,3.876 -0.01,5.873 -0.01,2.189 -0.01,4.377 -0.01,6.632 0,2.382 -0.01,4.764 -0.02,7.218 -0.01,2.424 -0.01,4.848 -0.01,7.346 -0.01,6.455 -0.03,12.91 -0.05,19.365 -0.02,6.583 -0.03,13.166 -0.03,19.748 -0.02,12.924 -0.06,25.848 -0.1,38.772 -5.5,0 -11,0 -16.67,0 -0.61,-1.223 -1.23,-2.446 -1.86,-3.706 -1.33,0.918 -2.67,1.835 -4.05,2.78 -9.65,4.814 -20.7,3.913 -31.15,2.779 -9.86,-3.873 -14.39,-10.779 -18.68,-20.166 -3.75,-12.682 -4.45,-27.786 0.07,-40.36 5.31,-8.998 12.29,-15.813 22.31,-19.153 3.32,-0.267 6.64,-0.409 9.96,-0.463 2.6,-0.072 2.6,-0.072 5.26,-0.145 5.17,0.608 5.17,0.608 14.43,6.167 0.61,-12.841 1.22,-25.683 1.85,-38.913 z m -31.5,51.884 c -7.63,10.356 -6.99,20.97 -5.56,33.354 2.68,7.074 6.67,10.619 12.98,14.824 6.96,0.909 10.17,0.58 16.21,-3.127 6.8,-6.99 8.43,-13.906 8.57,-23.51 -0.2,-10.006 -1.91,-15.523 -8.11,-23.394 -9.43,-5.294 -15.45,-4.405 -24.09,1.853 z"
       fill="#3a3838"
       id="path7" />
    <path
       d="m 1564.04,516.412 c 9.18,7.221 11.34,13.353 12.86,24.668 0.14,4.008 0.2,8.02 0.18,12.03 -0.01,2.221 -0.01,4.443 -0.02,6.732 -0.02,3.439 -0.02,3.439 -0.05,6.948 0,2.336 -0.01,4.673 -0.02,7.079 -0.02,5.748 -0.05,11.495 -0.09,17.242 -5.5,0 -11.01,0 -16.68,0 -0.61,-1.223 -1.22,-2.446 -1.85,-3.706 -1.93,1.351 -1.93,1.351 -3.89,2.729 -9.34,4.915 -19.17,4.02 -29.47,2.83 -7.07,-2.672 -10.61,-6.662 -14.82,-12.971 -1.23,-9.23 -1.45,-17.606 2.9,-25.942 13.67,-11.221 28.5,-11.411 45.28,-11.118 -2.01,-6.916 -2.01,-6.916 -5.56,-12.971 -12.08,-3.816 -21.72,-0.513 -33.35,3.706 -1.86,-1.853 -1.86,-1.853 -2.55,-7.181 0.69,-5.79 0.69,-5.79 4.86,-9.149 12.73,-5.495 29.65,-7.618 42.27,-0.926 z m -35.32,46.904 c -0.77,5.403 -0.77,5.403 0,11.118 4.07,4.697 6.72,5.456 12.86,6.37 6.98,-0.998 9.93,-3.36 14.94,-8.223 2.74,-5.479 1.96,-10.64 1.85,-16.677 -10.48,-0.552 -21.61,-0.626 -29.65,7.412 z"
       fill="#393738"
       id="path8" />
    <path
       d="m 1757.45,516.295 c 8.85,5.189 16.13,13.17 19.57,22.931 2.8,13.771 1.62,25.057 -5.09,37.524 -5.95,7.265 -11.76,13.183 -20.85,16.214 -27.17,2.082 -27.17,2.082 -38.91,-7.412 -9.63,-9.682 -13.52,-17.372 -13.67,-31.038 0.21,-12.785 1.92,-21.659 10.75,-31.075 13.15,-11.787 32.03,-14.522 48.2,-7.144 z m -32.31,15.519 c -6.7,7.056 -8,12.793 -8.34,22.236 0.34,9.846 1.56,15.082 8.34,22.237 7.01,4.348 12.18,4.111 20.16,2.946 4.34,-0.923 4.34,-0.923 8.44,-4.799 5.48,-10.517 8.02,-19.546 4.52,-31.154 -2.6,-6.476 -4.94,-11.209 -10.89,-15.172 -9.41,-2.567 -14.66,-2.638 -22.23,3.706 z"
       fill="#353334"
       id="path9" />
    <path
       d="m 1297.79,515.369 c 9.43,6.735 15.38,14.336 17.84,25.71 0,5.504 0,11.007 0,16.678 -17.12,0.611 -34.25,1.223 -51.89,1.853 4.16,12.241 4.16,12.241 9.62,16.561 13.25,5.005 24.04,1.159 36.71,-3.59 0,5.503 0,11.007 0,16.677 -13.57,5.29 -31.16,6.53 -45.32,2.367 -10.07,-5.42 -16.05,-13.971 -19.54,-24.603 -1.43,-14.877 -2.34,-30.361 7.42,-42.62 12.54,-12.222 28.76,-14.501 45.16,-9.033 z m -30.34,16.445 c -3.35,4.877 -3.71,6.97 -3.71,12.971 11.01,0 22.02,0 33.36,0 -0.6,-11.057 -0.6,-11.057 -7.18,-15.519 -9.27,-4.817 -13.82,-2.604 -22.47,2.548 z"
       fill="#343333"
       id="path10" />
    <path
       d="m 1432.37,487.342 c 5.5,0 11,0 16.67,0 1.86,1.853 1.86,1.853 2.08,5.382 -0.01,2.315 -0.01,2.315 -0.01,4.676 0,1.743 0,3.487 0,5.283 -0.01,1.896 -0.02,3.791 -0.03,5.744 -0.01,1.931 -0.01,3.861 -0.01,5.85 -0.01,6.193 -0.04,12.386 -0.06,18.579 -0.01,4.188 -0.02,8.375 -0.02,12.563 -0.02,10.289 -0.06,20.578 -0.09,30.867 14.06,0 28.12,0 42.61,0 0,4.892 0,9.784 0,14.824 -20.18,0 -40.35,0 -61.14,0 0,-34.243 0,-68.487 0,-103.768 z"
       fill="#383737"
       id="path11" />
    <path
       d="m 1341.57,479.93 c 5.5,0 11.01,0 16.68,0 1.85,1.853 1.85,1.853 2.07,6.226 0,2.907 0,2.907 -0.01,5.873 0,2.189 0,4.377 0,6.632 -0.01,2.382 -0.02,4.764 -0.03,7.218 0,2.424 0,4.848 -0.01,7.346 0,6.455 -0.02,12.91 -0.04,19.365 -0.02,6.583 -0.03,13.166 -0.04,19.748 -0.02,12.924 -0.05,25.848 -0.09,38.772 -6.11,0 -12.23,0 -18.53,0 0,-36.689 0,-73.379 0,-111.18 z"
       fill="#49464a"
       id="path12" />
    <path
       d="m 1089.68,532.784 c 6.58,1.619 9.17,4.619 12.85,10.148 1.78,7.811 0.86,13.223 -2.89,20.268 -5.95,5.033 -9.74,5.675 -17.49,5.675 -5.42,-2.529 -8.76,-5.055 -12.97,-9.266 -1.62,-8.655 -1.13,-14.949 3.71,-22.351 6.15,-3.976 9.59,-4.992 16.79,-4.474 z"
       fill="#2f2e2e"
       id="path13" />
    <path
       d="m 1841.99,532.784 c 6.59,1.619 9.17,4.619 12.86,10.148 1.78,7.811 0.85,13.223 -2.9,20.267 -5.94,5.033 -9.74,5.675 -17.48,5.675 -6.63,-2.943 -8.92,-5.033 -12.97,-11.118 -1.02,-9.016 -1.37,-12.781 3.7,-20.383 6.17,-4.112 9.52,-5.112 16.79,-4.589 z"
       fill="#2f2d2d"
       id="path14" />
  </g>
  <defs
     id="defs14">
    <clipPath
       id="clip0_1733_6">
      <rect
         width="1979"
         height="769"
         fill="#ffffff"
         id="rect14"
         x="0"
         y="0" />
    </clipPath>
  </defs>
</svg>
