<?xml version="1.0" encoding="UTF-8" standalone="no"?>
<svg
   width="1979"
   height="769"
   viewBox="0 0 1979 769"
   fill="none"
   version="1.1"
   id="svg14"
   sodipodi:docname="Logo Talar del Lago 1.svg"
   inkscape:export-filename="logotalararbol.svg"
   inkscape:export-xdpi="96"
   inkscape:export-ydpi="96"
   xmlns:inkscape="http://www.inkscape.org/namespaces/inkscape"
   xmlns:sodipodi="http://sodipodi.sourceforge.net/DTD/sodipodi-0.dtd"
   xmlns="http://www.w3.org/2000/svg"
   xmlns:svg="http://www.w3.org/2000/svg">
  <sodipodi:namedview
     id="namedview14"
     pagecolor="#ffffff"
     bordercolor="#000000"
     borderopacity="0.25"
     inkscape:showpageshadow="2"
     inkscape:pageopacity="0.0"
     inkscape:pagecheckerboard="0"
     inkscape:deskcolor="#d1d1d1"
     inkscape:export-bgcolor="#ffffffff" />
  <g
     clip-path="url(#clip0_1733_6)"
     id="g14">
    <path
       d="m 1031.2746,29.685461 c -1.62,10.65479 -1.62,10.65479 -3.7,14.82409 1.4,-0.0215 2.81,-0.043 4.26,-0.0651 1.8401,-0.0168 3.6801,-0.0335 5.5801,-0.0507 1.83,-0.0215 3.66,-0.043 5.54,-0.0652 5,0.181 5,0.181 10.56,2.034 4.35,6.5194 4.78,9.0015 3.71,16.6771 -6.45,8.8841 -15.48,12.889703 -25.1601,17.733903 -4.97,2.4911 -4.97,2.4911 -8.2,8.2083 15.2601,-3.0193 29.9701,-6.5503 44.7701,-11.3642 11.48,-3.5055 22.06,-5.408803 33.64,-1.2594 5.76,3.8876 7.09,5.935 8.68,12.6236 0.05,3.088 0.05,6.1771 0,9.2651 -17.3,9.699496 -34.67,15.278596 -53.73,20.383096 1.87,-0.4228 3.75,-0.8456 5.68,-1.2812 2.51,-0.5391 5.01,-1.0771 7.52,-1.6141 1.85,-0.421 1.85,-0.421 3.73,-0.8505 7.89,-1.6615 14.19,-2.1259 21.98,0.0398 7.41,7.412 7.41,7.412 7.41,14.8241 26.25,-4.0137 52.37,-8.4019 78.42,-13.595 44.15,-8.7468 44.15,-8.7468 62.41,-1.2291 6.85,5.2138 8.96,7.8402 10.77,16.3301 0.11,1.949 0.23,3.898 0.35,5.906 -15.2,7.737 -30.94,10.987 -47.49,14.477 -2.95,0.637 -5.91,1.277 -8.86,1.919 -6.04,1.312 -12.08,2.616 -18.13,3.915 -12.3,2.651 -24.59,5.396 -36.87,8.166 -3.55,0.799 -7.1,1.591 -10.65,2.382 -2.18,0.492 -4.37,0.983 -6.62,1.489 -1.88,0.42 -3.75,0.84 -5.68,1.273 -9.03,2.192 -17.97,4.668 -26.91,7.145 1.32,-0.215 2.64,-0.431 4,-0.653 157.17,-25.6 157.17,-25.6 196.7,-26.1 1.36,-0.019 2.73,-0.038 4.13,-0.058 7.91,0.14 13.16,1.469 19.38,6.428 2.66,7.999 1.96,15.732 1.85,24.089 -17.21,5.188 -34.33,9.366 -52,12.74 -4.91,0.955 -9.83,1.918 -14.74,2.881 -1.86,0.361 -1.86,0.361 -3.75,0.731 -10.33,2.018 -20.62,4.176 -30.91,6.354 -20.08,4.248 -40.17,8.076 -60.4,11.49 -25.06,4.241 -49.83,9.33 -74.57,15.141 -2.26,0.523 -2.26,0.523 -4.57,1.056 -15.44,3.591 -30.19,7.257 -44.42,14.463 0.61,1.834 1.22,3.669 1.85,5.559 14.9,5.944 28.22,1.97 43.17,-1.716 7.39,-1.822 14.82,-3.524 22.24,-5.248 1.5,-0.353 3.01,-0.706 4.56,-1.069 14.83,-3.466 29.73,-6.471 44.69,-9.339 2.26,-0.441 4.52,-0.882 6.85,-1.336 41.5,-7.934 41.5,-7.934 62.17,-7.698 1.99,-0.021 1.99,-0.021 4.01,-0.043 6.88,0.026 12.23,0.254 18,4.213 4.71,6.36 4,12.716 3.7,20.383 -9.77,4.591 -18.93,7.137 -29.53,9.033 -1.62,0.305 -3.24,0.609 -4.92,0.923 -10.93,2.002 -21.9,3.697 -32.91,5.288 -2.69,0.395 -5.38,0.791 -8.08,1.188 -5.32,0.781 -10.64,1.519 -15.97,2.234 -2.48,0.359 -4.96,0.719 -7.44,1.08 -2.2,0.302 -4.4,0.604 -6.66,0.916 -8.3,2.306 -11.52,6.838 -16.44,13.618 -5.12,5.854 -10.14,8.473 -17.02,12.045 11.56,0.196 22.6,-0.385 34.05,-1.969 1.69,-0.23 3.38,-0.46 5.12,-0.698 20.1,-2.912 39.97,-7.06 59.85,-11.206 25.32,-5.264 50.09,-9.082 76,-9.152 3.96,-0.022 7.92,-0.114 11.89,-0.206 2.55,-0.018 5.1,-0.031 7.66,-0.04 2.27,-0.025 4.54,-0.05 6.88,-0.076 7.76,1.417 10.49,4.297 15.35,10.376 1.13,5.687 0.43,10.927 0,16.677 -13.67,5.139 -26.89,7.339 -41.35,9.149 -4.78,0.631 -9.57,1.264 -14.35,1.897 -2.46,0.32 -4.92,0.641 -7.38,0.961 -46.86,1.776 -46.86,1.776 -88.87,15.788 13.56,0.343 26.52,-1.038 39.96,-2.779 46.04,-5.615 46.04,-5.615 65.66,0.926 0,7.95 0,15.899 0,24.089 -15.81,4.828 -31.48,7.362 -47.82,9.406 -7.64,0.961 -15.27,1.981 -22.9,2.994 -2.32,0.306 -2.32,0.306 -4.68,0.618 -74.56,9.872 -146.67,26.681 -219.22405,46.279 13.946,0.424 26.88195,-0.667 40.57395,-3.243 3.8,-0.676 7.59,-1.351 11.3801,-2.027 5.87,-1.068 11.74,-2.142 17.61,-3.221 54.63,-9.976 54.63,-9.976 67.02,-3.851 4.73,3.427 7.55,6.32 8.57,12.226 0.03,1.261 0.05,2.522 0.07,3.822 0.06,1.261 0.11,2.522 0.16,3.822 -1.2,5.066 -3.99,6.444 -8.26,9.149 2.25,0.246 4.5,0.492 6.82,0.745 2.94,0.331 5.88,0.661 8.81,0.992 2.23,0.242 2.23,0.242 4.51,0.489 11.15,1.27 11.15,1.27 13.21,3.333 0,4.28 0,8.561 0,12.971 -9.17,4.892 -18.34,9.784 -27.79,14.824 0.34,3.249 0.68,6.497 1.04,9.844 0.67,6.375 1,9.963 -1.04,16.098 -4.23,1.915 -8.22,3.365 -12.63,4.749 -1.39,0.461 -2.78,0.923 -4.21,1.398 -9.55,3.068 -19.17,5.684 -28.9,8.108 -6.05,1.511 -12.09,3.07 -18.13,4.626 -3.04,0.769 -6.1,1.51 -9.16,2.224 -16.9,3.107 -16.9,3.107 -30.0901,12.661 -1.379,4.256 -1.932,8.142 -2.504,12.56 -4.054,5.674 -4.054,5.674 -7.412,9.265 4.891,3.669 9.786,7.338 14.826,11.118 -1.39,16.379 -1.39,16.379 -7.414,24.089 -4.379,2.223 -8.554,4.098 -13.087,5.906 -9.32395,4.073 -9.32395,4.073 -15.38195,12.016 -0.858,4.638 -1.312,8.87 -1.179,13.579 4.555,0.05 9.11,0.087 13.66495,0.116 1.295,0.015 2.59,0.031 3.924,0.047 7.191,0.177 7.191,0.177 13.913,-2.016 4.32,-0.074 8.65,-0.08 12.9701,0 6.42,10.169 6.03,17.978 5.56,29.648 6.72,1.223 13.45,2.446 20.38,3.706 -2.19,8.774 -5.75,11.851 -12.97,16.677 -5.32,2.91 -10.78,5.418 -16.3301,7.876 -9.14,3.5 -9.14,3.5 -17.023,8.801 2.819,0.026 2.819,0.026 5.695,0.053 6.968,0.074 13.9481,0.196 20.9181,0.332 3.02,0.052 6.03,0.092 9.05,0.118 4.34,0.039 8.68,0.126 13.01,0.221 2.03,0.004 2.03,0.004 4.09,0.007 6.03,0.175 9.36,0.277 13.8,4.552 4.21,8.387 4.18,15.325 3.93,24.525 -0.2,5.277 -0.2,5.277 0.48,9.989 0.31,5.163 0.2,7.569 -2.41,12.088 -13.31,8.468 -28.24,15.064 -44.19,15.047 -2.71,0.004 -2.71,0.004 -5.4601,0.007 -2.95,-0.01 -2.95,-0.01 -5.96,-0.02 -2.08,10e-4 -4.16,10e-4 -6.304,10e-4 -6.878,-10e-4 -13.756,-0.016 -20.634,-0.03 -4.76695,-0.004 -9.53395,-0.006 -14.30095,-0.008 -11.268,-0.006 -22.535,-0.021 -33.803,-0.04 -12.83,-0.02 -25.659,-0.031 -38.489,-0.04 -26.388,-0.019 -52.775,-0.052 -79.163,-0.093 3.196,-9.164 8.049,-13.414 15.75,-18.993 1.102,-0.827 2.203,-1.653 3.337,-2.505 7.935,-5.911 7.935,-5.911 12.414,-8.15 1.437,-4.561 2.488,-9.161 3.568,-13.818 2.652,-6.277 5.52,-8.467 11.256,-12.124 4.819,-1.81 9.43,-3.36 14.361,-4.749 2.635,-0.78 5.269,-1.562 7.904,-2.345 1.265,-0.369 2.529,-0.738 3.832,-1.118 6.805,-2.019 13.508,-4.332 20.228,-6.613 -0.612,-1.834 -1.223,-3.669 -1.853,-5.559 -3.211,-1.261 -3.211,-1.261 -6.486,-2.547 -6.485,-3.012 -6.485,-3.012 -8.57,-7.644 0.232,-4.633 0.232,-4.633 2.403,-7.564 4.383,-3.399 7.892,-3.954 13.348,-4.828 2.601,-0.441 2.601,-0.441 5.255,-0.89 4.872,-0.581 9.532,-0.732 14.433,-0.616 -0.612,-4.892 -1.223,-9.784 -1.853,-14.824 -1.407,-0.47 -2.814,-0.941 -4.264,-1.426 -2.762,-0.956 -2.762,-0.956 -5.58,-1.932 -1.828,-0.624 -3.655,-1.247 -5.538,-1.89 -4.763,-2.061 -7.265,-3.798 -10.56,-7.723 2.527,-8.272 5.742,-11.963 12.971,-16.677 3.884,-1.385 7.743,-2.628 11.726,-3.699 3.649,-1.71 3.649,-1.71 4.458,-6.674 0.163,-1.469 0.325,-2.938 0.493,-4.451 -1.498,-0.16 -2.996,-0.32 -4.539,-0.485 -16.147,-2.123 -16.147,-2.123 -23.256,-7.159 -3.778,-5.43 -6.437,-10.846 -9.186,-16.836 -2.72,-4.667 -6.532,-6.353 -11.197,-8.874 -2.942,-6.337 -1.877,-13.515 -1.853,-20.383 -2.054,0.086 -4.109,0.172 -6.225,0.26 -2.712,0.07 -5.424,0.137 -8.136,0.203 -1.352,0.062 -2.704,0.124 -4.097,0.188 -6.29,0.114 -10.389,-0.136 -15.736,-3.576 -3.681,-5.763 -4.2,-10.705 -4.719,-17.459 -2.145,0.086 -4.29,0.172 -6.5,0.261 -2.852,0.07 -5.704,0.137 -8.556,0.203 -1.409,0.062 -2.818,0.124 -4.27,0.188 -9.91,0.171 -15.439,-1.457 -23.293,-8.064 -2.978,-5.956 -1.96,-11.926 -1.853,-18.53 1.196,-0.429 2.392,-0.859 3.625,-1.302 5.433,-1.955 10.864,-3.916 16.295,-5.878 2.823,-1.014 2.823,-1.014 5.703,-2.049 1.816,-0.656 3.631,-1.313 5.502,-1.99 1.669,-0.602 3.338,-1.203 5.057,-1.823 4.15,-1.613 8.056,-3.421 11.996,-5.488 -17.135,2.883 -33.522,7.129 -50.147,12.161 -26.696,8.006 -62.052,18.208 -88.69,4.538 -3.381,-2.219 -6.537,-4.568 -9.403,-7.434 0.612,-10.398 3.165,-16.021 9.265,-24.089 -3.057,-2.446 -6.115,-4.892 -9.265,-7.412 0,-5.756 0.535,-9.712 4.56,-14.006 19.254,-15.129 43.737,-21.527 66.665,-28.961 4.546,-1.481 9.092,-2.966 13.635,-4.457 2.805,-0.92 5.611,-1.834 8.42,-2.741 6.215,-2.032 12.169,-4.105 17.9,-7.278 -12.862,-0.675 -23.86,1.767 -36.249,5.095 -3.188,0.838 -3.188,0.838 -6.44,1.693 -19.824,5.326 -39.401,11.419 -58.994,17.532 -88.90404,27.733 -88.90404,27.733 -116.97104,22.005 -0.251,-4.128 -0.43,-8.26 -0.579,-12.392 -0.107,-2.3 -0.215,-4.601 -0.325,-6.971 0.904,-6.579 0.904,-6.579 4.618,-11.668 6.683,-5.027 12.982,-7.719 20.839,-10.43 1.495,-0.536 2.99,-1.071 4.53,-1.623 18.903,-6.59 38.26304,-11.73 57.60004,-16.87 4.139,-1.069 4.139,-1.069 7.82,-3.049 -1.055,-0.027 -2.109,-0.054 -3.196,-0.081 -4.842,-0.14 -9.682,-0.318 -14.523,-0.498 -2.488,-0.062 -2.488,-0.062 -5.027,-0.126 -10.376,-0.418 -18.14404,-1.65 -27.28504,-6.707 -4.596,-6.894 -4.564,-10.373 -3.706,-18.53 5.771,-7.619 13.428,-10.347 22.12804,-13.535 1.465,-0.553 2.931,-1.105 4.441,-1.674 17.523,-6.535 35.242,-12.5 52.994,-18.377 2.699,-0.896 2.699,-0.896 5.452,-1.81 48.97,-16.236 98.339,-31.021 147.927,-45.246 1.25,-0.359 2.5,-0.717 3.787,-1.087 12.499,-3.588 24.999,-7.17 37.509,-10.715 5.756,-1.633 11.508,-3.277 17.262,-4.918 3.164,-0.891 3.164,-0.891 6.393,-1.799 1.934,-0.553 3.868,-1.107 5.861,-1.677 1.69,-0.479 3.379,-0.958 5.12,-1.451 4.707,-1.424 4.707,-1.424 9.842,-5.185 -19.674,2.231 -38.246,7.283 -57.252,12.641 -9.075,2.554 -18.165,5.05 -27.255,7.546 -1.813,0.499 -3.627,0.997 -5.495,1.51 -43.152,11.814 -86.668,21.448 -130.595,29.897 -6.233,1.2 -12.458,2.43 -18.673,3.721 -1.243,0.256 -2.485,0.512 -3.766,0.776 -3.399,0.703 -6.797,1.416 -10.194,2.129 -14.461,2.514 -28.601,3.412 -41.397,-4.483 -4.264,-5.09 -5.418,-8.402 -6.485,-14.94 0.926,-5.443 0.926,-5.443 4.864,-9.728 5.666,-3.326 9.947,-4.376 16.445,-4.98 -0.279,-1.3 -0.559,-2.599 -0.847,-3.938 -0.76,-6.148 -0.805,-10.446 0.847,-16.445 13.279,-12.734 35.431,-22.236 53.737,-22.236 0,-7.95 0,-15.899 0,-24.09 4.244,-1.358 8.491,-2.708 12.739,-4.053 1.338,-0.428 2.675,-0.855 4.053,-1.295 6.878,-2.167 13.728,-4.182 20.753,-5.813 19.198,-4.562 35.561,-11.931 52.825,-21.517 8.752,-4.84 16.909,-8.737 26.492,-11.671 6.757,-2.099 6.757,-2.099 11.24,-7.166 1.245,-3.959 1.245,-3.959 1.608,-9.634 -1.15,0.075 -2.3,0.151 -3.484,0.229 -5.207,0.33 -10.416,0.63 -15.625,0.929 -1.81,0.12 -3.619,0.239 -5.483,0.362 -1.738,0.096 -3.476,0.191 -5.266,0.29 -2.402,0.145 -2.402,0.145 -4.852,0.294 -4.203,-0.251 -4.203,-0.251 -9.762,-3.957 2.416,-9.4436 5.826,-13.8592 12.971,-20.3832 0.922,-1.0629 1.844,-2.1259 2.794,-3.2211 12.131,-13.572596 27.741,-21.536996 43.531,-30.133099 1.664,-0.9095 3.328,-1.819 5.042,-2.756 99.265,-53.8898 99.265,-53.8898 141.34095,-39.86329 z m 44.4801,150.093689 c 7.41,1.853 7.41,1.853 7.41,1.853 z"
       fill="#045721"
       id="path1" />
  </g>
  <defs
     id="defs14">
    <clipPath
       id="clip0_1733_6">
      <rect
         width="1979"
         height="769"
         fill="#ffffff"
         id="rect14"
         x="0"
         y="0" />
    </clipPath>
  </defs>
</svg>
