<svg width="1979" height="769" viewBox="0 0 1979 769" fill="none" xmlns="http://www.w3.org/2000/svg">
<g clip-path="url(#clip0_1733_6)">
<path d="M1009.88 3.70631C1008.26 14.3611 1008.26 14.3611 1006.18 18.5304C1007.58 18.5089 1008.99 18.4874 1010.44 18.4653C1012.28 18.4485 1014.12 18.4318 1016.02 18.4146C1017.85 18.3931 1019.68 18.3716 1021.56 18.3494C1026.56 18.5304 1026.56 18.5304 1032.12 20.3834C1036.47 26.9028 1036.9 29.3849 1035.83 37.0605C1029.38 45.9446 1020.35 49.9502 1010.67 54.7944C1005.7 57.2855 1005.7 57.2855 1002.47 63.0027C1017.73 59.9834 1032.44 56.4524 1047.24 51.6385C1058.72 48.133 1069.3 46.2297 1080.88 50.3791C1086.64 54.2667 1087.97 56.3141 1089.56 63.0027C1089.61 66.0907 1089.61 69.1798 1089.56 72.2678C1072.26 81.9673 1054.89 87.5464 1035.83 92.6509C1037.7 92.2281 1039.58 91.8053 1041.51 91.3697C1044.02 90.8306 1046.52 90.2926 1049.03 89.7556C1050.88 89.3346 1050.88 89.3346 1052.76 88.9051C1060.65 87.2436 1066.95 86.7792 1074.74 88.9449C1082.15 96.3569 1082.15 96.3569 1082.15 103.769C1108.4 99.7553 1134.52 95.3671 1160.57 90.174C1204.72 81.4272 1204.72 81.4272 1222.98 88.9449C1229.83 94.1587 1231.94 96.7851 1233.75 105.275C1233.86 107.224 1233.98 109.173 1234.1 111.181C1218.9 118.918 1203.16 122.168 1186.61 125.658C1183.66 126.295 1180.7 126.935 1177.75 127.577C1171.71 128.889 1165.67 130.193 1159.62 131.492C1147.32 134.143 1135.03 136.888 1122.75 139.658C1119.2 140.457 1115.65 141.249 1112.1 142.04C1109.92 142.532 1107.73 143.023 1105.48 143.529C1103.6 143.949 1101.73 144.369 1099.8 144.802C1090.77 146.994 1081.83 149.47 1072.89 151.947C1074.21 151.732 1075.53 151.516 1076.89 151.294C1234.06 125.694 1234.06 125.694 1273.59 125.194C1274.95 125.175 1276.32 125.156 1277.72 125.136C1285.63 125.276 1290.88 126.605 1297.1 131.564C1299.76 139.563 1299.06 147.296 1298.95 155.653C1281.74 160.841 1264.62 165.019 1246.95 168.393C1242.04 169.348 1237.12 170.311 1232.21 171.274C1230.35 171.635 1230.35 171.635 1228.46 172.005C1218.13 174.023 1207.84 176.181 1197.55 178.359C1177.47 182.607 1157.38 186.435 1137.15 189.849C1112.09 194.09 1087.32 199.179 1062.58 204.99C1060.32 205.513 1060.32 205.513 1058.01 206.046C1042.57 209.637 1027.82 213.303 1013.59 220.509C1014.2 222.343 1014.81 224.178 1015.44 226.068C1030.34 232.012 1043.66 228.038 1058.61 224.352C1066 222.53 1073.43 220.828 1080.85 219.104C1082.35 218.751 1083.86 218.398 1085.41 218.035C1100.24 214.569 1115.14 211.564 1130.1 208.696C1132.36 208.255 1134.62 207.814 1136.95 207.36C1178.45 199.426 1178.45 199.426 1199.12 199.662C1201.11 199.641 1201.11 199.641 1203.13 199.619C1210.01 199.645 1215.36 199.873 1221.13 203.832C1225.84 210.192 1225.13 216.548 1224.83 224.215C1215.06 228.806 1205.9 231.352 1195.3 233.248C1193.68 233.553 1192.06 233.857 1190.38 234.171C1179.45 236.173 1168.48 237.868 1157.47 239.459C1154.78 239.854 1152.09 240.25 1149.39 240.647C1144.07 241.428 1138.75 242.166 1133.42 242.881C1130.94 243.24 1128.46 243.6 1125.98 243.961C1123.78 244.263 1121.58 244.565 1119.32 244.877C1111.02 247.183 1107.8 251.715 1102.88 258.495C1097.76 264.349 1092.74 266.968 1085.86 270.54C1097.42 270.736 1108.46 270.155 1119.91 268.571C1121.6 268.341 1123.29 268.111 1125.03 267.873C1145.13 264.961 1165 260.813 1184.88 256.667C1210.2 251.403 1234.97 247.585 1260.88 247.515C1264.84 247.493 1268.8 247.401 1272.77 247.309C1275.32 247.291 1277.87 247.278 1280.43 247.269C1282.7 247.244 1284.97 247.219 1287.31 247.193C1295.07 248.61 1297.8 251.49 1302.66 257.569C1303.79 263.256 1303.09 268.496 1302.66 274.246C1288.99 279.385 1275.77 281.585 1261.31 283.395C1256.53 284.026 1251.74 284.659 1246.96 285.292C1244.5 285.612 1242.04 285.933 1239.58 286.253C1192.72 288.029 1192.72 288.029 1150.71 302.041C1164.27 302.384 1177.23 301.003 1190.67 299.262C1236.71 293.647 1236.71 293.647 1256.33 300.188C1256.33 308.138 1256.33 316.087 1256.33 324.277C1240.52 329.105 1224.85 331.639 1208.51 333.683C1200.87 334.644 1193.24 335.664 1185.61 336.677C1183.29 336.983 1183.29 336.983 1180.93 337.295C1106.37 347.167 1034.26 363.976 961.706 383.574C975.652 383.998 988.588 382.907 1002.28 380.331C1006.08 379.655 1009.87 378.98 1013.66 378.304C1019.53 377.236 1025.4 376.162 1031.27 375.083C1085.9 365.107 1085.9 365.107 1098.29 371.232C1103.02 374.659 1105.84 377.552 1106.86 383.458C1106.89 384.719 1106.91 385.98 1106.93 387.28C1106.99 388.541 1107.04 389.802 1107.09 391.102C1105.89 396.168 1103.1 397.546 1098.83 400.251C1101.08 400.497 1103.33 400.743 1105.65 400.996C1108.59 401.327 1111.53 401.657 1114.46 401.988C1116.69 402.23 1116.69 402.23 1118.97 402.477C1130.12 403.747 1130.12 403.747 1132.18 405.81C1132.18 410.09 1132.18 414.371 1132.18 418.781C1123.01 423.673 1113.84 428.565 1104.39 433.605C1104.73 436.854 1105.07 440.102 1105.43 443.449C1106.1 449.824 1106.43 453.412 1104.39 459.547C1100.16 461.462 1096.17 462.912 1091.76 464.296C1090.37 464.757 1088.98 465.219 1087.55 465.694C1078 468.762 1068.38 471.378 1058.65 473.802C1052.6 475.313 1046.56 476.872 1040.52 478.428C1037.48 479.197 1034.42 479.938 1031.36 480.652C1014.46 483.759 1014.46 483.759 1001.27 493.313C999.891 497.569 999.338 501.455 998.766 505.873C994.712 511.547 994.712 511.547 991.354 515.138C996.245 518.807 1001.14 522.476 1006.18 526.256C1004.79 542.635 1004.79 542.635 998.766 550.345C994.387 552.568 990.212 554.443 985.679 556.251C976.355 560.324 976.355 560.324 970.297 568.267C969.439 572.905 968.985 577.137 969.118 581.846C973.673 581.896 978.228 581.933 982.783 581.962C984.078 581.977 985.373 581.993 986.707 582.009C993.898 582.186 993.898 582.186 1000.62 579.993C1004.94 579.919 1009.27 579.913 1013.59 579.993C1020.01 590.162 1019.62 597.971 1019.15 609.641C1025.87 610.864 1032.6 612.087 1039.53 613.347C1037.34 622.121 1033.78 625.198 1026.56 630.024C1021.24 632.934 1015.78 635.442 1010.23 637.9C1001.09 641.4 1001.09 641.4 993.207 646.701C996.026 646.727 996.026 646.727 998.902 646.754C1005.87 646.828 1012.85 646.95 1019.82 647.086C1022.84 647.138 1025.85 647.178 1028.87 647.204C1033.21 647.243 1037.55 647.33 1041.88 647.425C1043.91 647.429 1043.91 647.429 1045.97 647.432C1052 647.607 1055.33 647.709 1059.77 651.984C1063.98 660.371 1063.95 667.309 1063.7 676.509C1063.5 681.786 1063.5 681.786 1064.18 686.498C1064.49 691.661 1064.38 694.067 1061.77 698.586C1048.46 707.054 1033.53 713.65 1017.58 713.633C1014.87 713.637 1014.87 713.637 1012.12 713.64C1009.17 713.63 1009.17 713.63 1006.16 713.62C1004.08 713.621 1002 713.621 999.856 713.621C992.978 713.62 986.1 713.605 979.222 713.591C974.455 713.587 969.688 713.585 964.921 713.583C953.653 713.577 942.386 713.562 931.118 713.543C918.288 713.523 905.459 713.512 892.629 713.503C866.241 713.484 839.854 713.451 813.466 713.41C816.662 704.246 821.515 699.996 829.216 694.417C830.318 693.59 831.419 692.764 832.553 691.912C840.488 686.001 840.488 686.001 844.967 683.762C846.404 679.201 847.455 674.601 848.535 669.944C851.187 663.667 854.055 661.477 859.791 657.82C864.61 656.01 869.221 654.46 874.152 653.071C876.787 652.291 879.421 651.509 882.056 650.726C883.321 650.357 884.585 649.988 885.888 649.608C892.693 647.589 899.396 645.276 906.116 642.995C905.504 641.161 904.893 639.326 904.263 637.436C901.052 636.175 901.052 636.175 897.777 634.889C891.292 631.877 891.292 631.877 889.207 627.245C889.439 622.612 889.439 622.612 891.61 619.681C895.993 616.282 899.502 615.727 904.958 614.853C907.559 614.412 907.559 614.412 910.213 613.963C915.085 613.382 919.745 613.231 924.646 613.347C924.034 608.455 923.423 603.563 922.793 598.523C921.386 598.053 919.979 597.582 918.529 597.097C915.767 596.141 915.767 596.141 912.949 595.165C911.121 594.541 909.294 593.918 907.411 593.275C902.648 591.214 900.146 589.477 896.851 585.552C899.378 577.28 902.593 573.589 909.822 568.875C913.706 567.49 917.565 566.247 921.548 565.176C925.197 563.466 925.197 563.466 926.006 558.502C926.169 557.033 926.331 555.564 926.499 554.051C925.001 553.891 923.503 553.731 921.96 553.566C905.813 551.443 905.813 551.443 898.704 546.407C894.926 540.977 892.267 535.561 889.518 529.571C886.798 524.904 882.986 523.218 878.321 520.697C875.379 514.36 876.444 507.182 876.468 500.314C874.414 500.4 872.359 500.486 870.243 500.574C867.531 500.644 864.819 500.711 862.107 500.777C860.755 500.839 859.403 500.901 858.01 500.965C851.72 501.079 847.621 500.829 842.274 497.389C838.593 491.626 838.074 486.684 837.555 479.93C835.41 480.016 833.265 480.102 831.055 480.191C828.203 480.261 825.351 480.328 822.499 480.394C821.09 480.456 819.681 480.518 818.229 480.582C808.319 480.753 802.79 479.125 794.936 472.518C791.958 466.562 792.976 460.592 793.083 453.988C794.279 453.559 795.475 453.129 796.708 452.686C802.141 450.731 807.572 448.77 813.003 446.808C815.826 445.794 815.826 445.794 818.706 444.759C820.522 444.103 822.337 443.446 824.208 442.769C825.877 442.167 827.546 441.566 829.265 440.946C833.415 439.333 837.321 437.525 841.261 435.458C824.126 438.341 807.739 442.587 791.114 447.619C764.418 455.625 729.062 465.827 702.424 452.157C699.043 449.938 695.887 447.589 693.021 444.723C693.633 434.325 696.186 428.702 702.286 420.634C699.229 418.188 696.171 415.742 693.021 413.222C693.021 407.466 693.556 403.51 697.581 399.216C716.835 384.087 741.318 377.689 764.246 370.255C768.792 368.774 773.338 367.289 777.881 365.798C780.686 364.878 783.492 363.964 786.301 363.057C792.516 361.025 798.47 358.952 804.201 355.779C791.339 355.104 780.341 357.546 767.952 360.874C764.764 361.712 764.764 361.712 761.512 362.567C741.688 367.893 722.111 373.986 702.518 380.099C613.614 407.832 613.614 407.832 585.547 402.104C585.296 397.976 585.117 393.844 584.968 389.712C584.861 387.412 584.753 385.111 584.643 382.741C585.547 376.162 585.547 376.162 589.261 371.073C595.944 366.046 602.243 363.354 610.1 360.643C611.595 360.107 613.09 359.572 614.63 359.02C633.533 352.43 652.893 347.29 672.23 342.15C676.369 341.081 676.369 341.081 680.05 339.101C678.995 339.074 677.941 339.047 676.854 339.02C672.012 338.88 667.172 338.702 662.331 338.522C659.843 338.46 659.843 338.46 657.304 338.396C646.928 337.978 639.16 336.746 630.019 331.689C625.423 324.795 625.455 321.316 626.313 313.159C632.084 305.54 639.741 302.812 648.441 299.624C649.906 299.071 651.372 298.519 652.882 297.95C670.405 291.415 688.124 285.45 705.876 279.573C708.575 278.677 708.575 278.677 711.328 277.763C760.298 261.527 809.667 246.742 859.255 232.517C860.505 232.158 861.755 231.8 863.042 231.43C875.541 227.842 888.041 224.26 900.551 220.715C906.307 219.082 912.059 217.438 917.813 215.797C920.977 214.906 920.977 214.906 924.206 213.998C926.14 213.445 928.074 212.891 930.067 212.321C931.757 211.842 933.446 211.363 935.187 210.87C939.894 209.446 939.894 209.446 945.029 205.685C925.355 207.916 906.783 212.968 887.777 218.326C878.702 220.88 869.612 223.376 860.522 225.872C858.709 226.371 856.895 226.869 855.027 227.382C811.875 239.196 768.359 248.83 724.432 257.279C718.199 258.479 711.974 259.709 705.759 261C704.516 261.256 703.274 261.512 701.993 261.776C698.594 262.479 695.196 263.192 691.799 263.905C677.338 266.419 663.198 267.317 650.402 259.422C646.138 254.332 644.984 251.02 643.917 244.482C644.843 239.039 644.843 239.039 648.781 234.754C654.447 231.428 658.728 230.378 665.226 229.774C664.947 228.474 664.667 227.175 664.379 225.836C663.619 219.688 663.574 215.39 665.226 209.391C678.505 196.657 700.657 187.155 718.963 187.155C718.963 179.205 718.963 171.256 718.963 163.065C723.207 161.707 727.454 160.357 731.702 159.012C733.04 158.584 734.377 158.157 735.755 157.717C742.633 155.55 749.483 153.535 756.508 151.904C775.706 147.342 792.069 139.973 809.333 130.387C818.085 125.547 826.242 121.65 835.825 118.716C842.582 116.617 842.582 116.617 847.065 111.55C848.31 107.591 848.31 107.591 848.673 101.916C847.523 101.991 846.373 102.067 845.189 102.145C839.982 102.475 834.773 102.775 829.564 103.074C827.754 103.194 825.945 103.313 824.081 103.436C822.343 103.532 820.605 103.627 818.815 103.726C816.413 103.871 816.413 103.871 813.963 104.02C809.76 103.769 809.76 103.769 804.201 100.063C806.617 90.6194 810.027 86.2038 817.172 79.6798C818.094 78.6169 819.016 77.5539 819.966 76.4587C832.097 62.8861 847.707 54.9217 863.497 46.3256C865.161 45.4161 866.825 44.5066 868.539 43.5696C967.804 -10.3202 967.804 -10.3202 1009.88 3.70631ZM1054.36 153.8C1061.77 155.653 1061.77 155.653 1061.77 155.653L1054.36 153.8Z" fill="#045721"/>
<path d="M220.507 289.07C227.939 292.567 231.957 295.937 235.099 303.43C239.045 316.213 238.221 326.121 232.479 337.993C228.51 345.049 224.04 351.763 219.595 358.523C204.08 382.289 204.08 382.289 198.271 409.515C208.824 408.547 216.668 404.38 225.856 399.49C227.443 398.664 229.03 397.838 230.665 396.987C235.741 394.345 240.806 391.683 245.869 389.016C328.045 345.763 328.045 345.763 357.628 346.513C363.535 348.598 363.535 348.598 366.893 352.072C367.87 356.386 367.87 356.386 366.893 361.337C362.822 364.678 359.109 367.253 354.617 369.907C345.986 375.135 338.004 380.689 330.198 387.111C315.965 398.754 301.432 406.939 284.782 414.611C282.136 415.861 279.49 417.113 276.846 418.368C255.387 428.505 233.774 438.336 212.104 448.014C205 451.192 197.919 454.418 190.859 457.694C189.538 458.306 188.217 458.918 186.856 459.549C182.793 461.45 178.75 463.387 174.71 465.337C173.468 465.917 172.227 466.496 170.948 467.093C158.232 473.332 153.475 481.602 147.827 494.204C147.276 495.423 146.724 496.642 146.156 497.897C144.329 501.94 142.521 505.991 140.712 510.041C138.056 515.936 135.392 521.826 132.728 527.717C132.035 529.254 131.342 530.79 130.628 532.373C125.594 543.512 120.465 554.604 115.284 565.675C90.0732 619.55 65.983 673.239 46.8072 729.592C42.2388 743.006 37.5906 756.179 31.5009 769C26.1217 769.64 22.0036 769.961 17.2343 767.132C12.2233 763.08 9.47085 760.352 7.41198 754.176C5.79455 735.436 7.79574 717.783 11.5812 699.396C12.1496 696.588 12.1496 696.588 12.7294 693.723C14.8767 683.942 17.2384 675.283 22 666.5C28.2162 640.023 26.6314 650.32 28 642C33.2198 613.808 48.2789 587.693 60.4332 561.956C69.9536 541.758 78.2227 521.517 85.2378 500.313C71.4224 500.859 71.4224 500.859 59.7229 507.11C57.3932 510.933 55.5135 514.735 53.7369 518.843C47.7671 530.853 47.7671 530.853 41.8082 534.825C35.3205 535.775 33.1614 533.59 27.7949 529.961C24.9987 527.593 22.2573 525.159 19.5723 522.665C13.3276 516.995 7.17547 512.141 0 507.725C4.99858 491.82 20.0351 483.423 33.9045 475.709C38.318 473.443 42.7663 471.28 47.2514 469.159C49.7111 467.977 49.7111 467.977 52.2205 466.771C67.5514 459.608 83.3833 454.062 99.5732 449.161C110.248 445.666 116.768 442.922 121.968 432.742C122.688 431.192 123.408 429.642 124.151 428.045C125.755 424.984 127.36 421.924 128.974 418.868C131.44 414.168 133.844 409.436 136.25 404.705C139.518 398.286 142.814 391.881 146.112 385.477C147.096 383.565 147.096 383.565 148.101 381.614C197.523 285.786 197.523 285.786 220.507 289.07Z" fill="#085A24"/>
<path d="M520.112 291.039C521.495 291.213 522.879 291.388 524.303 291.567C528.824 293.005 530.729 294.64 533.663 298.335C536.733 307.548 536.395 314.437 533.083 323.582C528.592 331.811 522.412 338.612 516.284 345.637C504.396 359.387 494.106 374.298 483.632 389.133C481.823 391.679 480.013 394.224 478.203 396.769C473.61 403.239 469.043 409.727 464.488 416.224C462.303 419.339 460.116 422.453 457.927 425.565C440.64 450.151 423.766 474.938 407.659 500.313C406.614 501.953 405.569 503.593 404.493 505.283C392.113 524.771 380.295 544.189 370.599 565.169C384.367 560.269 396.133 553.778 408.354 545.828C446.369 521.774 446.369 521.773 465.102 524.403C470.511 526.99 473.852 529.447 478.073 533.668C477.557 541.042 475.514 544.515 470.089 549.382C468.857 550.506 467.626 551.63 466.357 552.788C464.417 554.502 464.417 554.502 462.438 556.251C460.509 557.998 460.509 557.998 458.54 559.78C456.158 561.936 453.768 564.084 451.367 566.22C449.09 568.274 446.888 570.412 444.719 572.581C441.425 572.016 441.425 572.016 437.423 570.96C429.025 569.861 425.116 571.83 418.313 576.75C414.715 579.626 411.165 582.564 407.659 585.552C405.829 587.097 403.999 588.643 402.114 590.235C399.186 592.717 396.263 595.205 393.351 597.707C384.709 605.096 375.799 612.102 366.777 619.022C365.431 620.06 364.084 621.099 362.697 622.168C361.423 623.139 360.149 624.11 358.837 625.109C357.709 625.97 356.581 626.83 355.42 627.716C346.462 633.887 338.742 635.53 327.98 633.73C318.799 627.904 313.585 620.477 307.597 611.494C306.79 612.366 305.982 613.238 305.15 614.136C294.833 624.923 285.917 631.082 270.537 631.877C259.454 630.03 250.348 625.873 240.353 620.803C234.346 618.535 230.589 618.013 224.212 618.906C218.553 622.346 218.553 622.345 213.094 627.129C210.987 628.836 208.873 630.534 206.753 632.225C205.125 633.525 205.125 633.525 203.464 634.852C186.479 647.991 167.007 662.217 144.533 659.673C137.872 656.982 132.36 654.243 127.856 648.554C123.668 635.991 124.596 624.045 130.173 612.073C143.65 587.649 162.242 566.539 181.593 546.639C182.72 545.464 183.847 544.29 185.008 543.079C206.908 520.293 227.701 500.487 260.975 498.272C268.634 498.632 272.462 502.111 277.486 507.494C282.657 516.285 281.823 525.629 281.655 535.521C282.687 535.903 283.719 536.285 284.782 536.679C290.982 540.366 294.362 544.333 298.332 550.345C298.942 561.116 294.06 567.753 287.909 576.077C285.396 579.939 284.32 582.906 283.508 587.405C302.515 582.187 319.465 569.461 329.717 552.661C331.53 549.431 333.342 546.2 335.129 542.954C339.347 535.524 343.998 528.36 348.595 521.16C349.688 519.441 350.782 517.723 351.908 515.952C366.004 493.903 380.609 472.192 395.174 450.453C401.461 441.061 407.71 431.645 413.942 422.216C418.547 415.249 423.16 408.288 427.773 401.327C430.004 397.957 432.231 394.585 434.454 391.209C465.295 344.393 465.295 344.393 481.194 328.601C487.229 322.519 490.696 315.32 494.514 307.756C500.091 297.336 507.541 289.13 520.112 291.039ZM201.375 585.371C199.692 587.882 198.048 590.419 196.417 592.964C198.321 595.209 198.321 595.209 202.251 595.621C210.302 594.396 214.204 589.441 219.811 583.815C222.108 581.593 224.41 579.375 226.717 577.163C227.854 576.067 228.992 574.971 230.164 573.841C238.823 565.705 248.272 558.467 257.588 551.105C260.114 549.074 262.559 546.943 264.978 544.786C264.978 543.563 264.978 542.34 264.978 541.08C239.286 528.234 213.623 567.776 201.375 585.371Z" fill="#095B25"/>
<path d="M589.252 465.106C593.757 468.572 595.999 471.187 598.517 476.224C599.025 480.847 599.343 485.469 599.668 490.107C600.399 494.945 601.455 498.052 604.076 502.166C607.747 504.69 611.453 507.162 615.194 509.578C619.836 516.541 619.59 519.841 618.9 528.109C616.468 534.645 616.468 534.645 613.341 540.964C612.31 543.083 611.278 545.201 610.214 547.384C609.412 548.973 608.609 550.561 607.782 552.198C623.201 547.282 636.489 540.437 650.286 532.046C690.637 507.725 690.637 507.725 698.579 507.725C699.076 506.655 699.573 505.585 700.085 504.483C702.444 500.013 704.333 496.565 707.844 492.901C715.901 491.484 723.808 492.24 731.933 492.901C733.529 492.954 735.124 493.006 736.768 493.061C742.166 493.898 744.49 494.785 748.61 498.46C752.153 504.743 754.683 511.409 757.006 518.224C760.093 527.223 763.035 533.243 770.846 539.227C779.77 541.504 787.489 540.17 795.63 536.1C800.625 531.997 800.625 531.997 804.2 526.835C807.906 522.55 807.906 522.55 813.928 521.044C815.61 520.929 817.291 520.815 819.024 520.697C824.847 527.646 827.642 532.521 829.563 541.427C827.795 551.229 823.136 554.045 815.275 559.747C792.524 574.467 770.173 581.491 743.051 576.287C730.873 572.873 725.81 563.412 719.491 553.052C717.109 548.492 717.109 548.492 717.109 544.786C700.291 549.627 685.107 556.745 669.634 564.745C661.123 569.14 652.58 573.471 644.032 577.792C642.343 578.66 640.655 579.527 638.915 580.42C619.847 590.062 603.53 595.599 581.84 592.964C575.434 590.845 569.335 588.314 563.122 585.689C554.904 582.644 551.3 582.761 542.928 585.552C535.074 590.524 528.302 596.733 521.314 602.83C505.068 616.673 491.973 624.002 470.241 623.22C461.686 622.208 455.458 619.715 448.656 614.274C444.808 609.142 443.848 603.363 443.98 597.046C447.3 578.69 461.113 562.566 472.514 548.492C473.291 547.523 474.069 546.555 474.87 545.557C544.316 459.683 544.316 459.683 589.252 465.106ZM530.537 536.346C524.618 543.352 518.885 550.497 513.28 557.757C515.114 559.591 516.949 561.426 518.839 563.316C525.227 560.536 529.63 556.823 534.705 552.082C550.365 537.732 567.083 524.655 583.693 511.431C582.234 507.444 582.234 507.444 578.598 506.567C556.608 502.902 543.602 521.156 530.537 536.346Z" fill="#095B26"/>
<path d="M1652.29 516.064C1653.71 516.981 1655.12 517.898 1656.58 518.843C1657.19 517.62 1657.8 516.397 1658.43 515.137C1663.93 515.137 1669.44 515.137 1675.11 515.137C1675.25 526.477 1675.35 537.817 1675.41 549.157C1675.44 553.011 1675.48 556.864 1675.53 560.717C1675.6 566.274 1675.63 571.83 1675.65 577.387C1675.68 579.094 1675.71 580.801 1675.74 582.559C1675.74 595.99 1674.09 606.745 1664.45 616.821C1651.58 625.239 1638.22 625.802 1623.22 624.465C1617.45 623.057 1612.02 621.227 1606.55 618.906C1606.55 614.014 1606.55 609.122 1606.55 604.082C1608.84 604.693 1611.13 605.305 1613.5 605.935C1623.92 608.214 1634.89 609.594 1645.46 607.788C1651.24 603.327 1653.76 599.62 1655.19 592.501C1655.65 590.208 1656.11 587.914 1656.58 585.552C1655.24 586.469 1653.9 587.386 1652.52 588.331C1642.9 593.134 1631.8 592.293 1621.37 591.111C1612.16 586.908 1607.84 581.283 1602.84 572.581C1598.37 559.158 1598.97 543.432 1605.04 530.656C1615.37 512.843 1633.48 508.412 1652.29 516.064ZM1623.22 533.667C1618.37 543.3 1618.48 552.754 1619.52 563.316C1622.38 570.196 1625.9 574.565 1632.49 578.14C1639.59 579.197 1642.61 578.777 1648.7 574.897C1655.49 568.114 1657.12 562.897 1657.16 553.356C1656.98 544.846 1656.14 538.88 1651.02 531.814C1640.4 523.643 1633.3 525.564 1623.22 533.667Z" fill="#393737"/>
<path d="M1935.49 464C1937.69 464.005 1939.89 464.01 1942.15 464.014C1944.35 464.01 1946.55 464.005 1948.81 464C1954.2 464.246 1954.2 464.246 1956.05 466.099C1956.24 470.938 1956.3 475.728 1956.29 480.569C1956.29 482.084 1956.3 483.599 1956.3 485.161C1956.31 490.195 1956.3 495.23 1956.3 500.264C1956.3 503.747 1956.3 507.229 1956.3 510.712C1956.3 518.021 1956.3 525.33 1956.29 532.639C1956.28 542.03 1956.29 551.421 1956.3 560.812C1956.3 568.007 1956.3 575.201 1956.3 582.396C1956.3 585.859 1956.3 589.323 1956.3 592.787C1956.31 597.619 1956.3 602.451 1956.29 607.283C1956.29 608.729 1956.3 610.175 1956.3 611.664C1956.26 621.54 1956.26 621.54 1954.2 623.605C1950.18 623.788 1946.17 623.845 1942.15 623.837C1939.95 623.842 1937.76 623.846 1935.49 623.851C1930.11 623.605 1930.11 623.605 1928.25 621.752C1928.07 616.913 1928 612.123 1928.01 607.283C1928.01 605.767 1928.01 604.252 1928 602.69C1928 597.656 1928 592.622 1928.01 587.587C1928.01 584.105 1928 580.622 1928 577.139C1928 569.83 1928 562.521 1928.01 555.212C1928.02 545.821 1928.02 536.43 1928.01 527.039C1928 519.845 1928 512.65 1928.01 505.456C1928.01 501.992 1928.01 498.528 1928 495.065C1928 490.233 1928 485.401 1928.01 480.569C1928.01 479.123 1928.01 477.677 1928 476.187C1928.05 464.34 1928.05 464.34 1935.49 464Z" fill="#151313"/>
<path d="M1202.59 479.93C1208.1 479.93 1213.6 479.93 1219.27 479.93C1221.12 481.783 1221.12 481.783 1221.35 486.156C1221.34 488.094 1221.34 490.032 1221.34 492.029C1221.33 494.218 1221.33 496.406 1221.33 498.661C1221.33 501.043 1221.32 503.425 1221.31 505.879C1221.3 508.303 1221.3 510.727 1221.3 513.225C1221.29 519.68 1221.27 526.135 1221.25 532.59C1221.23 539.173 1221.22 545.756 1221.22 552.338C1221.2 565.262 1221.16 578.186 1221.12 591.11C1215.62 591.11 1210.12 591.11 1204.45 591.11C1203.84 589.887 1203.22 588.664 1202.59 587.404C1201.26 588.322 1199.92 589.239 1198.54 590.184C1188.89 594.998 1177.84 594.097 1167.39 592.963C1157.53 589.09 1153 582.184 1148.71 572.797C1144.96 560.115 1144.26 545.011 1148.78 532.437C1154.09 523.439 1161.07 516.624 1171.09 513.284C1174.41 513.017 1177.73 512.875 1181.05 512.821C1183.65 512.749 1183.65 512.749 1186.31 512.676C1191.48 513.284 1191.48 513.284 1200.74 518.843C1201.35 506.002 1201.96 493.16 1202.59 479.93ZM1171.09 531.814C1163.46 542.17 1164.1 552.784 1165.53 565.168C1168.21 572.242 1172.2 575.787 1178.51 579.992C1185.47 580.901 1188.68 580.572 1194.72 576.865C1201.52 569.875 1203.15 562.959 1203.29 553.355C1203.09 543.349 1201.38 537.832 1195.18 529.961C1185.75 524.667 1179.73 525.556 1171.09 531.814Z" fill="#3A3838"/>
<path d="M1564.04 516.412C1573.22 523.633 1575.38 529.765 1576.9 541.08C1577.04 545.088 1577.1 549.1 1577.08 553.11C1577.07 555.331 1577.07 557.553 1577.06 559.842C1577.04 563.281 1577.04 563.281 1577.01 566.79C1577.01 569.126 1577 571.463 1576.99 573.869C1576.97 579.617 1576.94 585.364 1576.9 591.111C1571.4 591.111 1565.89 591.111 1560.22 591.111C1559.61 589.888 1559 588.665 1558.37 587.405C1556.44 588.756 1556.44 588.756 1554.48 590.134C1545.14 595.049 1535.31 594.154 1525.01 592.964C1517.94 590.292 1514.4 586.302 1510.19 579.993C1508.96 570.763 1508.74 562.387 1513.09 554.051C1526.76 542.83 1541.59 542.64 1558.37 542.933C1556.36 536.017 1556.36 536.017 1552.81 529.962C1540.73 526.146 1531.09 529.449 1519.46 533.668C1517.6 531.815 1517.6 531.815 1516.91 526.487C1517.6 520.697 1517.6 520.697 1521.77 517.338C1534.5 511.843 1551.42 509.72 1564.04 516.412ZM1528.72 563.316C1527.95 568.719 1527.95 568.719 1528.72 574.434C1532.79 579.131 1535.44 579.89 1541.58 580.804C1548.56 579.806 1551.51 577.444 1556.52 572.581C1559.26 567.102 1558.48 561.941 1558.37 555.904C1547.89 555.352 1536.76 555.278 1528.72 563.316Z" fill="#393738"/>
<path d="M1757.45 516.295C1766.3 521.484 1773.58 529.465 1777.02 539.226C1779.82 552.997 1778.64 564.283 1771.93 576.75C1765.98 584.015 1760.17 589.933 1751.08 592.964C1723.91 595.046 1723.91 595.046 1712.17 585.552C1702.54 575.87 1698.65 568.18 1698.5 554.514C1698.71 541.729 1700.42 532.855 1709.25 523.439C1722.4 511.652 1741.28 508.917 1757.45 516.295ZM1725.14 531.814C1718.44 538.87 1717.14 544.607 1716.8 554.05C1717.14 563.896 1718.36 569.132 1725.14 576.287C1732.15 580.635 1737.32 580.398 1745.3 579.233C1749.64 578.31 1749.64 578.31 1753.74 574.434C1759.22 563.917 1761.76 554.888 1758.26 543.28C1755.66 536.804 1753.32 532.071 1747.37 528.108C1737.96 525.541 1732.71 525.47 1725.14 531.814Z" fill="#353334"/>
<path d="M1297.79 515.369C1307.22 522.104 1313.17 529.705 1315.63 541.079C1315.63 546.583 1315.63 552.086 1315.63 557.757C1298.51 558.368 1281.38 558.98 1263.74 559.61C1267.9 571.851 1267.9 571.851 1273.36 576.171C1286.61 581.176 1297.4 577.33 1310.07 572.581C1310.07 578.084 1310.07 583.588 1310.07 589.258C1296.5 594.548 1278.91 595.788 1264.75 591.625C1254.68 586.205 1248.7 577.654 1245.21 567.022C1243.78 552.145 1242.87 536.661 1252.63 524.402C1265.17 512.18 1281.39 509.901 1297.79 515.369ZM1267.45 531.814C1264.1 536.691 1263.74 538.784 1263.74 544.785C1274.75 544.785 1285.76 544.785 1297.1 544.785C1296.5 533.728 1296.5 533.728 1289.92 529.266C1280.65 524.449 1276.1 526.662 1267.45 531.814Z" fill="#343333"/>
<path d="M1432.37 487.342C1437.87 487.342 1443.37 487.342 1449.04 487.342C1450.9 489.195 1450.9 489.195 1451.12 492.724C1451.11 495.039 1451.11 495.039 1451.11 497.4C1451.11 499.143 1451.11 500.887 1451.11 502.683C1451.1 504.579 1451.09 506.474 1451.08 508.427C1451.07 510.358 1451.07 512.288 1451.07 514.277C1451.06 520.47 1451.03 526.663 1451.01 532.856C1451 537.044 1450.99 541.231 1450.99 545.419C1450.97 555.708 1450.93 565.997 1450.9 576.286C1464.96 576.286 1479.02 576.286 1493.51 576.286C1493.51 581.178 1493.51 586.07 1493.51 591.11C1473.33 591.11 1453.16 591.11 1432.37 591.11C1432.37 556.867 1432.37 522.623 1432.37 487.342Z" fill="#383737"/>
<path d="M1341.57 479.93C1347.07 479.93 1352.58 479.93 1358.25 479.93C1360.1 481.783 1360.1 481.783 1360.32 486.156C1360.32 489.063 1360.32 489.063 1360.31 492.029C1360.31 494.218 1360.31 496.406 1360.31 498.661C1360.3 501.043 1360.29 503.425 1360.28 505.879C1360.28 508.303 1360.28 510.727 1360.27 513.225C1360.27 519.68 1360.25 526.135 1360.23 532.59C1360.21 539.173 1360.2 545.756 1360.19 552.338C1360.17 565.262 1360.14 578.186 1360.1 591.11C1353.99 591.11 1347.87 591.11 1341.57 591.11C1341.57 554.421 1341.57 517.731 1341.57 479.93Z" fill="#49464A"/>
<path d="M1089.68 532.784C1096.26 534.403 1098.85 537.403 1102.53 542.932C1104.31 550.743 1103.39 556.155 1099.64 563.2C1093.69 568.233 1089.9 568.875 1082.15 568.875C1076.73 566.346 1073.39 563.82 1069.18 559.609C1067.56 550.954 1068.05 544.66 1072.89 537.258C1079.04 533.282 1082.48 532.266 1089.68 532.784Z" fill="#2F2E2E"/>
<path d="M1841.99 532.784C1848.58 534.403 1851.16 537.403 1854.85 542.932C1856.63 550.743 1855.7 556.155 1851.95 563.199C1846.01 568.232 1842.21 568.874 1834.47 568.874C1827.84 565.931 1825.55 563.841 1821.5 557.756C1820.48 548.74 1820.13 544.975 1825.2 537.373C1831.37 533.261 1834.72 532.261 1841.99 532.784Z" fill="#2F2D2D"/>
</g>
<defs>
<clipPath id="clip0_1733_6">
<rect width="1979" height="769" fill="white"/>
</clipPath>
</defs>
</svg>
